<svg width="30" height="31" viewBox="0 0 30 31" fill="none" xmlns="http://www.w3.org/2000/svg">
<rect y="0.5" width="30" height="30" rx="5" fill="white"/>
<path fill-rule="evenodd" clip-rule="evenodd" d="M14.8409 4.68338C14.9174 4.43887 15.2634 4.43887 15.3399 4.68338L17.702 12.2336C17.3581 12.2114 17.0011 12.1802 16.6528 12.1497C16.1762 12.1081 15.7159 12.0679 15.3275 12.0539C15.3767 12.0689 15.4271 12.0843 15.4786 12.1C16.1837 12.3155 17.1034 12.5966 17.9891 12.8345C17.996 12.8374 18.003 12.8399 18.0101 12.8421L25.9974 15.3409C26.2419 15.4174 26.2419 15.7634 25.9974 15.8399L18.0101 18.3387C17.9283 18.3643 17.8643 18.4283 17.8387 18.5101L15.3399 26.4974C15.2634 26.7419 14.9174 26.7419 14.8409 26.4974L12.5141 19.06C12.9392 19.113 13.3939 19.1872 13.8346 19.259L13.8347 19.259C14.3068 19.336 14.7629 19.4104 15.1491 19.4533L15.0019 19.3961C14.2282 19.095 13.1896 18.6908 12.2279 18.3645C12.2101 18.3537 12.1909 18.345 12.1707 18.3387L11.7536 18.2082C11.6806 18.1849 11.6084 18.1623 11.5371 18.1405L4.18338 15.8399C3.93887 15.7634 3.93887 15.4174 4.18338 15.3409L12.1707 12.8421C12.2525 12.8165 12.3165 12.7525 12.3421 12.6707L14.8409 4.68338Z" fill="#151514"/>
</svg>
