<svg width="24" height="15" viewBox="0 0 24 15" fill="none" xmlns="http://www.w3.org/2000/svg">
<path d="M6.01929 14.7308C4.29229 14.2422 2.94387 13.3153 1.97404 11.95C1.0042 10.5847 0.519287 9.10133 0.519287 7.5C0.519287 5.89867 1.0042 4.41533 1.97404 3.05C2.94387 1.68467 4.29229 0.757751 6.01929 0.26925V1.85C4.83595 2.25 3.87345 2.96667 3.13179 4C2.39012 5.03333 2.01929 6.2 2.01929 7.5C2.01929 8.8 2.39012 9.96667 3.13179 11C3.87345 12.0333 4.83595 12.75 6.01929 13.15V14.7308ZM14.0193 15C11.9373 15 10.1668 14.2705 8.70779 12.8115C7.24879 11.3525 6.51929 9.582 6.51929 7.5C6.51929 5.418 7.24879 3.6475 8.70779 2.1885C10.1668 0.729499 11.9373 0 14.0193 0C15.0231 0 15.9715 0.185917 16.8645 0.55775C17.7574 0.929583 18.548 1.44692 19.2365 2.10975L18.1828 3.1635C17.6391 2.63917 17.0145 2.23083 16.3088 1.9385C15.603 1.64617 14.8398 1.5 14.0193 1.5C12.3526 1.5 10.936 2.08333 9.76929 3.25C8.60262 4.41667 8.01929 5.83333 8.01929 7.5C8.01929 9.16667 8.60262 10.5833 9.76929 11.75C10.936 12.9167 12.3526 13.5 14.0193 13.5C14.8398 13.5 15.603 13.3538 16.3088 13.0615C17.0145 12.7692 17.6391 12.3608 18.1828 11.8365L19.2365 12.8903C18.548 13.5531 17.7574 14.0704 16.8645 14.4423C15.9715 14.8141 15.0231 15 14.0193 15ZM19.827 11.1538L18.773 10.1L20.623 8.25H13.077V6.75H20.623L18.773 4.9L19.827 3.84625L23.4808 7.5L19.827 11.1538Z" fill="#FFF829"/>
</svg>
