<svg width="30" height="31" viewBox="0 0 30 31" fill="none" xmlns="http://www.w3.org/2000/svg">
<rect y="0.5" width="30" height="30" rx="5" fill="white"/>
<path d="M24.4638 6.53814L20.836 13.4691L17.7004 11.4533L17.6299 11.408L17.6687 11.4823L19.8199 15.6056C19.8261 15.6278 19.8347 15.6496 19.8456 15.6705L24.4638 24.4936C24.595 24.7444 24.3247 25.0148 24.0739 24.8835L15.2507 20.2654C15.1539 20.2147 15.0384 20.2147 14.9416 20.2654L6.1184 24.8835C5.8676 25.0148 5.59724 24.7444 5.72851 24.4936L9.44668 17.3899L12.3482 19.2551L12.4191 19.3007L12.3799 19.2261L9.54837 13.8362L9.54836 13.8361L5.72851 6.53814C5.59723 6.28734 5.8676 6.01697 6.1184 6.14825L14.9416 10.7664C15.0384 10.8171 15.1539 10.8171 15.2507 10.7664L24.0739 6.14825C24.3247 6.01697 24.595 6.28734 24.4638 6.53814Z" fill="#151514" stroke="white" stroke-width="0.0444444"/>
<path d="M14.8847 6.29238C14.7869 6.10773 15.0325 5.93497 15.1732 6.08945L21.224 12.7334L19.824 15.6167L14.8847 6.29238Z" fill="white"/>
<path d="M15.4405 24.8505C15.5388 25.0335 15.2972 25.2078 15.1546 25.0567L8.87365 18.4L10.4062 15.4826L15.4405 24.8505Z" fill="white"/>
</svg>
